<svg width="873" height="343" viewBox="0 0 873 343" fill="none" xmlns="http://www.w3.org/2000/svg">
<g clip-path="url(#clip0_18_3)">
<path d="M3.28998 224.13L185.38 61.59L204.93 136.14C204.93 136.14 219.98 190.97 195 213.28C170.02 235.59 136.11 236.96 104.41 210.38L290.53 44.26H313.15L239.41 334.18" stroke="black" stroke-width="6.58" stroke-linecap="round" stroke-linejoin="round"/>
<path d="M274.46 81.27C274.46 81.27 329.18 32.91 379.56 89.98C429.94 147.05 373.2 258.55 281.84 218.95C262.41 210.53 255.36 192.67 255.36 192.67" stroke="black" stroke-width="6.58" stroke-linecap="round" stroke-linejoin="round"/>
<path d="M411.19 117.39C411.19 117.39 423.31 112.06 431.64 85.78L439.99 62.13H509.36L471.72 185.59C471.72 185.59 463.06 214.11 472.84 227.03" stroke="black" stroke-width="6.58" stroke-linecap="round" stroke-linejoin="round"/>
<path d="M536.13 61.59L500.37 227.04" stroke="black" stroke-width="6.58" stroke-linecap="round" stroke-linejoin="round"/>
<path d="M544.29 3.28998C544.29 3.28998 546.95 6.32998 545.73 14.45C544.51 22.57 542.24 31.39 542.24 31.39" stroke="black" stroke-width="6.58" stroke-linecap="round" stroke-linejoin="round"/>
<path d="M577.98 61.59C577.98 61.59 581.11 68.76 576.41 91.81C571.43 116.28 552.23 215.79 549.1 227.04" stroke="black" stroke-width="6.58" stroke-linecap="round" stroke-linejoin="round"/>
<path d="M551.71 103.45C551.71 103.45 578.76 71.29 607.13 64.34C649.63 53.93 682.82 81.61 679.51 116.28C676.28 150.13 664.07 227.04 664.07 227.04" stroke="black" stroke-width="6.58" stroke-linecap="round" stroke-linejoin="round"/>
<path d="M868.96 118.43C864.25 89.37 821.87 47.7 757.12 70.16C682.45 96.06 688.96 207.8 764.02 227.11C794.66 234.99 832.94 230.78 855.94 203.11" stroke="black" stroke-width="6.58" stroke-linecap="round" stroke-linejoin="round"/>
<path d="M855.94 57.17C855.94 57.17 858.74 66.69 855.07 81.87C855.07 81.87 822.67 235.06 820.17 244.02C816.71 256.42 806.62 329.35 739.7 338.38C693.55 344.6 657.37 312.16 652.21 293.73" stroke="black" stroke-width="6.58" stroke-linecap="round" stroke-linejoin="round"/>
</g>
<defs>
<clipPath id="clip0_18_3">
<rect width="872.25" height="342.46" fill="white"/>
</clipPath>
</defs>
</svg>
